<svg xmlns="http://www.w3.org/2000/svg" viewBox="0 0 48 48"><title>ereader-hand-glyph</title><g id="e-reader-hand"><path d="M39.13,5.07V31.16a5.12,5.12,0,0,0-1.43-.77l-1.59-.57V6.67c0-.65-.17-.78-.75-.78H12.56c-.59,0-.67.14-.67.78V37.95c0,.65.09.79.67.79h9.25a26.87,26.87,0,0,1,2.28,3.88H11.58c-1.93,0-2.7-.94-2.7-3.07V5.07c0-2.12.78-3.07,2.7-3.07H36.42C38.34,2,39.13,2.94,39.13,5.07ZM13.91,23.41H24.65V21.58H13.91Zm0,4.13H24.65V25.7H13.91Zm0-8.25H34.08V17.45H13.91ZM34.08,9.2H13.91V11H34.08Zm-20.17,6H34.08V13.33H13.91Zm23.24,17c-4.39-1.58-6.5-2.27-6.5-2.27l0-6.77a2.33,2.33,0,0,0-2.19-2.45,2.37,2.37,0,0,0-2.24,2.45V34.19c-1.24-1.48-2.5-4.53-4.33-4.53a2.22,2.22,0,0,0-1.36.54c-3.26,2.52,4.38,6.62,6.6,15.21,0,.05,0,.09,0,.1a.6.6,0,0,0,.05.26h0c.08.15.24.22.52.22h9.38c.24,0,.54-.09.54-.64V42.8C37.59,41.25,39,40.58,39,39V34.87A2.47,2.47,0,0,0,37.15,32.15Z" fill="#231f20"/></g></svg>